<svg xmlns="http://www.w3.org/2000/svg" viewBox="-52 -46 104 104" width="512" height="512">
  <title>Emba</title>
  <defs>
    <clipPath id="body"><rect x="-34" y="-24" width="68" height="56" rx="24"/></clipPath>
  </defs>
  <!-- tail -->
  <g>
    <circle cx="40" cy="4" r="6.5" fill="#9a4729"/>
    <circle cx="37.4" cy="7.2" r="6.8" fill="#e2683c"/>
    <circle cx="34.8" cy="10.4" r="7.1" fill="#9a4729"/>
    <circle cx="32.2" cy="13.6" r="7.4" fill="#e2683c"/>
    <circle cx="29.6" cy="16.8" r="7.7" fill="#9a4729"/>
    <circle cx="27" cy="20" r="8" fill="#e2683c"/>
  </g>
  <!-- ears -->
  <circle cx="-22" cy="-19" r="9" fill="#e2683c"/>
  <circle cx="22" cy="-19" r="9" fill="#e2683c"/>
  <circle cx="-22.6" cy="-19.8" r="4.8" fill="#3a2420"/>
  <circle cx="22.6" cy="-19.8" r="4.8" fill="#3a2420"/>
  <!-- body -->
  <rect x="-34" y="-24" width="68" height="56" rx="24" fill="#e2683c"/>
  <ellipse cx="-6" cy="-20" rx="30" ry="10" fill="#fff" fill-opacity=".13" clip-path="url(#body)"/>
  <!-- brows -->
  <ellipse cx="-10" cy="-8" rx="3.6" ry="2.6" fill="#fff4e8"/>
  <ellipse cx="10" cy="-8" rx="3.6" ry="2.6" fill="#fff4e8"/>
  <!-- blush -->
  <ellipse cx="-19" cy="11" rx="4.5" ry="2.8" fill="#ff96aa" fill-opacity=".55"/>
  <ellipse cx="19" cy="11" rx="4.5" ry="2.8" fill="#ff96aa" fill-opacity=".55"/>
  <!-- eyes -->
  <ellipse cx="-10" cy="3" rx="3.3" ry="4.8" fill="#1e1a24"/>
  <ellipse cx="10" cy="3" rx="3.3" ry="4.8" fill="#1e1a24"/>
  <ellipse cx="-9" cy="0.8" rx="1.1" ry="1.3" fill="#fff"/>
  <ellipse cx="11" cy="0.8" rx="1.1" ry="1.3" fill="#fff"/>
  <!-- paws -->
  <circle cx="-41" cy="18" r="5" fill="#b05130"/>
  <circle cx="41" cy="18" r="5" fill="#b05130"/>
</svg>
